<svg width="24" height="24" viewBox="0 0 24 24" fill="none" xmlns="http://www.w3.org/2000/svg">
<path fill-rule="evenodd" clip-rule="evenodd" d="M3 11.5C3 11.2239 3.22386 11 3.5 11L19.5 11C19.7761 11 20 11.2239 20 11.5C20 11.7761 19.7761 12 19.5 12L3.5 12C3.22386 12 3 11.7761 3 11.5Z" fill="#333333"/>
<path fill-rule="evenodd" clip-rule="evenodd" d="M15.6464 7.64645C15.8417 7.45118 16.1583 7.45118 16.3536 7.64645L20.2071 11.5L16.3536 15.3536C16.1583 15.5488 15.8417 15.5488 15.6464 15.3536C15.4512 15.1583 15.4512 14.8417 15.6464 14.6464L18.7929 11.5L15.6464 8.35355C15.4512 8.15829 15.4512 7.84171 15.6464 7.64645Z" fill="#333333"/>
</svg>
