<svg width="142" height="52" viewBox="0 0 142 52" fill="none" xmlns="http://www.w3.org/2000/svg">
<path d="M12.1147 16.7227C12.1147 19.2617 11.6812 21.1484 10.814 22.3828C9.94678 23.6172 8.59131 24.2344 6.74756 24.2344C4.92725 24.2344 3.57959 23.6328 2.70459 22.4297C1.82959 21.2188 1.37646 19.4141 1.34521 17.0156V14.1211C1.34521 11.6133 1.77881 9.75 2.646 8.53125C3.51318 7.3125 4.87256 6.70312 6.72412 6.70312C8.56006 6.70312 9.91162 7.29297 10.7788 8.47266C11.646 9.64453 12.0913 11.457 12.1147 13.9102V16.7227ZM9.94678 13.7578C9.94678 11.9219 9.68896 10.5859 9.17334 9.75C8.65771 8.90625 7.84131 8.48438 6.72412 8.48438C5.61475 8.48438 4.80615 8.90234 4.29834 9.73828C3.79053 10.5742 3.52881 11.8594 3.51318 13.5938V17.0625C3.51318 18.9062 3.77881 20.2695 4.31006 21.1523C4.84912 22.0273 5.66162 22.4648 6.74756 22.4648C7.81787 22.4648 8.61084 22.0508 9.12646 21.2227C9.6499 20.3945 9.92334 19.0898 9.94678 17.3086V13.7578ZM8.54053 48H6.36084V33.5508L1.98975 35.1562V33.1875L8.20068 30.8555H8.54053V48Z" fill="#BDBDBD"/>
<path d="M125.018 16.7227C125.018 19.2617 124.585 21.1484 123.718 22.3828C122.85 23.6172 121.495 24.2344 119.651 24.2344C117.831 24.2344 116.483 23.6328 115.608 22.4297C114.733 21.2188 114.28 19.4141 114.249 17.0156V14.1211C114.249 11.6133 114.682 9.75 115.55 8.53125C116.417 7.3125 117.776 6.70312 119.628 6.70312C121.464 6.70312 122.815 7.29297 123.682 8.47266C124.55 9.64453 124.995 11.457 125.018 13.9102V16.7227ZM122.85 13.7578C122.85 11.9219 122.593 10.5859 122.077 9.75C121.561 8.90625 120.745 8.48438 119.628 8.48438C118.518 8.48438 117.71 8.90234 117.202 9.73828C116.694 10.5742 116.432 11.8594 116.417 13.5938V17.0625C116.417 18.9062 116.682 20.2695 117.214 21.1523C117.753 22.0273 118.565 22.4648 119.651 22.4648C120.721 22.4648 121.514 22.0508 122.03 21.2227C122.553 20.3945 122.827 19.0898 122.85 17.3086V13.7578ZM138.975 24H127.796V22.4414L133.702 15.8789C134.577 14.8867 135.178 14.082 135.507 13.4648C135.843 12.8398 136.01 12.1953 136.01 11.5312C136.01 10.6406 135.741 9.91016 135.202 9.33984C134.663 8.76953 133.944 8.48438 133.046 8.48438C131.968 8.48438 131.128 8.79297 130.526 9.41016C129.932 10.0195 129.635 10.8711 129.635 11.9648H127.468C127.468 10.3945 127.971 9.125 128.979 8.15625C129.995 7.1875 131.35 6.70312 133.046 6.70312C134.632 6.70312 135.885 7.12109 136.807 7.95703C137.729 8.78516 138.19 9.89062 138.19 11.2734C138.19 12.9531 137.12 14.9531 134.979 17.2734L130.409 22.2305H138.975V24Z" fill="#BDBDBD"/>
<line y1="-1" x2="43.8219" y2="-1" transform="matrix(-0.706805 0.707408 -0.706805 -0.707408 80.9285 0)" stroke="#E0E0E0" stroke-width="2"/>
</svg>
